<svg height="480pt" viewBox="-20 0 480 480" width="480pt" xmlns="http://www.w3.org/2000/svg"><path d="m64 144h32v40h-32zm0 0" fill="#ff9811"/><path d="m88 440v32h-80v-224h80zm0 0" fill="#c0ab91"/><path d="m296 312c8.824219.027344 15.972656 7.175781 16 16v16c-.027344 8.824219-7.175781 15.972656-16 16 8.824219.027344 15.972656 7.175781 16 16v16c-.027344 8.824219-7.175781 15.972656-16 16h-8c8.824219.027344 15.972656 7.175781 16 16v16c-.027344 8.824219-7.175781 15.972656-16 16h-152l-48-16v-176h32l32-32 8-32c.027344-8.824219 7.175781-15.972656 16-16h16c8.824219.027344 15.972656 7.175781 16 16v64h96c8.824219.027344 15.972656 7.175781 16 16v16c-.027344 8.824219-7.175781 15.972656-16 16zm0 0" fill="#ffdaaa"/><path d="m96 157.199219c-10.339844 3.734375-21.660156 3.734375-32 0-22.039062-7.792969-35.261719-30.328125-31.308594-53.371094 3.953125-23.039063 23.929688-39.882813 47.308594-39.882813s43.355469 16.84375 47.308594 39.882813c3.953125 23.042969-9.269532 45.578125-31.308594 53.371094zm0 0" fill="#ffda44"/><path d="m264 16v24h-32v-32h32zm0 0" fill="#898890"/><path d="m264 40v224h-32v-224zm0 0" fill="#acabb1"/><path d="m432 16-48 48 48 48h-168v-96zm0 0" fill="#ffda44"/><g fill="#2d2d30"><path d="m395.3125 64 42.34375-42.34375c2.285156-2.289062 2.972656-5.730469 1.734375-8.71875s-4.15625-4.9375-7.390625-4.9375h-160c0-4.417969-3.582031-8-8-8h-32c-4.417969 0-8 3.582031-8 8v248h-8v-56c0-13.253906-10.746094-24-24-24h-16c-12.84375-.011719-23.421875 10.089844-24 22.921875l-7.199219 28.988281-28.113281 28.089844h-20.6875v-8c0-4.417969-3.582031-8-8-8h-80c-4.417969 0-8 3.582031-8 8v224c0 4.417969 3.582031 8 8 8h80c4.417969 0 8-3.582031 8-8v-20.894531l37.472656 12.488281c.816406.269531 1.667969.40625 2.527344.40625h152c13.253906 0 24-10.746094 24-24v-16c-.023438-4.132812-1.125-8.191406-3.199219-11.769531 6.957031-4.375 11.183594-12.011719 11.199219-20.230469v-16c-.019531-5.921875-2.246094-11.625-6.238281-16 3.992187-4.375 6.21875-10.078125 6.238281-16v-16c-.023438-4.132812-1.125-8.191406-3.199219-11.769531 6.957031-4.375 11.183594-12.011719 11.199219-20.230469v-16c0-13.253906-10.746094-24-24-24h-32v-136h160c3.234375 0 6.152344-1.949219 7.390625-4.9375s.550781-6.429688-1.734375-8.71875zm-139.3125-48v16h-16v-16zm-16 32h16v208h-16zm-160 416h-64v-208h64zm232-184v16c0 4.417969-3.582031 8-8 8h-40v16h32c4.417969 0 8 3.582031 8 8v16c0 4.417969-3.582031 8-8 8h-24v16h24c4.417969 0 8 3.582031 8 8v16c0 4.417969-3.582031 8-8 8h-24v16h16c4.417969 0 8 3.582031 8 8v16c0 4.417969-3.582031 8-8 8h-150.703125l-41.296875-13.769531v-162.230469h24c2.121094 0 4.15625-.84375 5.65625-2.34375l32-32c1.023438-1.023438 1.75-2.308594 2.105469-3.710938l8-32c.15625-.636718.238281-1.289062.238281-1.945312 0-4.417969 3.582031-8 8-8h16c4.417969 0 8 3.582031 8 8v56h-16v16h120c4.417969 0 8 3.582031 8 8zm-40-176v-80h140.6875l-34.34375 34.34375c-3.121094 3.125-3.121094 8.1875 0 11.3125l34.34375 34.34375zm0 0"/><path d="m72 32h16v16h-16zm0 0"/><path d="m33.074219 46.722656 13.855469-8 8 13.855469-13.855469 8zm0 0"/><path d="m6.722656 78.929688 8-13.855469 13.855469 8-8 13.855469zm0 0"/><path d="m0 104h16v16h-16zm0 0"/><path d="m6.722656 145.070312 13.855469-8 8 13.859376-13.855469 7.996093zm0 0"/><path d="m131.421875 150.929688 8-13.855469 13.855469 8-8 13.855469zm0 0"/><path d="m144 104h16v16h-16zm0 0"/><path d="m131.425781 73.066406 13.859375-8 7.996094 13.859375-13.855469 8zm0 0"/><path d="m105.074219 52.578125 8-13.859375 13.859375 8-8 13.859375zm0 0"/><path d="m64 192h32c4.417969 0 8-3.582031 8-8v-21.480469c23.660156-11.222656 36.382812-37.347656 30.632812-62.894531-5.753906-25.550781-28.445312-43.703125-54.632812-43.703125s-48.878906 18.152344-54.632812 43.703125c-5.75 25.546875 6.972656 51.671875 30.632812 62.894531v21.480469c0 4.417969 3.582031 8 8 8zm24-16h-16v-8.640625c5.300781.855469 10.699219.855469 16 0zm-48-64c-.097656-18.835938 12.960938-35.1875 31.351562-39.261719 18.390626-4.074219 37.128907 5.238281 44.996094 22.351563 7.863282 17.117187 2.722656 37.398437-12.347656 48.703125v-23.792969h-16v31.199219c-5.277344 1.078125-10.722656 1.078125-16 0v-31.199219h-16v23.792969c-10.035156-7.492188-15.964844-19.269531-16-31.792969zm0 0"/></g></svg>